<svg xmlns="http://www.w3.org/2000/svg" xmlns:xlink="http://www.w3.org/1999/xlink" height="29.999999999999773" width="30">
  <defs>
    <path id="path-1" opacity="1" fill-rule="evenodd" d="M2 3.066631961701205e-7L6.67553499132473 3.066631961701205e-7C7.7793650403127295 3.066631961701205e-7 8.67553499132473 0.8961702576751962 8.67553499132473 2.000000306663196L8.67553499132473 6.886256230833906C8.67553499132473 7.990086279821906 7.7793650403127295 8.886256230833906 6.67553499132473 8.886256230833906L2 8.886256230833906C0.8961699510120003 8.886256230833906 2.220446049250313e-16 7.990086279821906 0 6.886256230833906L0 2.000000306663196C0 0.8961702576751964 0.8961699510119996 3.066631963921651e-7 1.9999999999999996 3.066631961701205e-7Z"/>
    <mask id="mask-2" maskUnits="userSpaceOnUse" maskContentUnits="userSpaceOnUse" x="0" y="0">
      <rect opacity="1" x="0" y="0" width="30" height="29.999999999999773" fill="black"/>
      <use xlink:href="#path-1" fill="white"/>
    </mask>
    <path id="path-3" opacity="1" fill-rule="evenodd" d="M2 10.66350741566771L6.67553499132473 10.66350741566771C7.7793650403127295 10.66350741566771 8.67553499132473 11.55967736667971 8.67553499132473 12.66350741566771L8.67553499132473 17.549763339838428C8.67553499132473 18.65359338882643 7.7793650403127295 19.549763339838428 6.67553499132473 19.549763339838428L2 19.549763339838428C0.8961699510120003 19.549763339838428 2.220446049250313e-16 18.65359338882643 0 17.549763339838428L0 12.66350741566771C0 11.55967736667971 0.8961699510119996 10.66350741566771 1.9999999999999996 10.66350741566771Z"/>
    <mask id="mask-4" maskUnits="userSpaceOnUse" maskContentUnits="userSpaceOnUse" x="0" y="0">
      <rect opacity="1" x="0" y="0" width="30" height="29.999999999999773" fill="black"/>
      <use xlink:href="#path-3" fill="white"/>
    </mask>
    <path id="path-5" opacity="1" fill-rule="evenodd" d="M2 21.113744075829118L6.67553499132473 21.113744075829118C7.7793650403127295 21.113744075829118 8.67553499132473 22.009914026841116 8.67553499132473 23.113744075829118L8.67553499132473 27.999999999999844C8.67553499132473 29.10383004898784 7.7793650403127295 29.999999999999844 6.67553499132473 29.999999999999844L2 29.999999999999844C0.8961699510120003 29.999999999999844 2.220446049250313e-16 29.10383004898784 0 27.999999999999844L0 23.113744075829118C0 22.009914026841116 0.8961699510119996 21.113744075829118 1.9999999999999996 21.113744075829118Z"/>
    <mask id="mask-6" maskUnits="userSpaceOnUse" maskContentUnits="userSpaceOnUse" x="0" y="0">
      <rect opacity="1" x="0" y="0" width="30" height="29.999999999999773" fill="black"/>
      <use xlink:href="#path-5" fill="white"/>
    </mask>
    <path id="path-7" opacity="1" fill-rule="evenodd" d="M12.575477154424902 3.066631961701205e-7L17.251012145749648 3.066631961701205e-7C18.35484219473765 3.066631961701205e-7 19.251012145749648 0.8961702576751962 19.251012145749648 2.000000306663196L19.251012145749648 6.886256230833906C19.251012145749648 7.990086279821906 18.35484219473765 8.886256230833906 17.251012145749648 8.886256230833906L12.575477154424902 8.886256230833906C11.471647105436903 8.886256230833906 10.575477154424902 7.990086279821906 10.575477154424902 6.886256230833906L10.575477154424902 2.000000306663196C10.575477154424902 0.8961702576751964 11.471647105436903 3.066631963921651e-7 12.575477154424902 3.066631961701205e-7Z"/>
    <mask id="mask-8" maskUnits="userSpaceOnUse" maskContentUnits="userSpaceOnUse" x="0" y="0">
      <rect opacity="1" x="0" y="0" width="30" height="29.999999999999773" fill="black"/>
      <use xlink:href="#path-7" fill="white"/>
    </mask>
    <path id="path-9" opacity="1" fill-rule="evenodd" d="M23.32446500867536 0L28.000000000000107 0C29.103830048988105 0 30.000000000000107 0.896169951012 30.000000000000107 2L30.000000000000107 6.886255924170715C30.000000000000107 7.990085973158715 29.103830048988105 8.886255924170715 28.000000000000107 8.886255924170715L23.32446500867536 8.886255924170715C22.22063495968736 8.886255924170715 21.32446500867536 7.990085973158715 21.32446500867536 6.886255924170715L21.32446500867536 2C21.32446500867536 0.8961699510120003 22.22063495968736 2.220446049250313e-16 23.32446500867536 0Z"/>
    <mask id="mask-10" maskUnits="userSpaceOnUse" maskContentUnits="userSpaceOnUse" x="0" y="0">
      <rect opacity="1" x="0" y="0" width="30" height="29.999999999999773" fill="black"/>
      <use xlink:href="#path-9" fill="white"/>
    </mask>
    <path id="path-11" opacity="1" fill-rule="evenodd" d="M12.575477154424902 10.66350741566771L17.251012145749648 10.66350741566771C18.35484219473765 10.66350741566771 19.251012145749648 11.55967736667971 19.251012145749648 12.66350741566771L19.251012145749648 17.549763339838428C19.251012145749648 18.65359338882643 18.35484219473765 19.549763339838428 17.251012145749648 19.549763339838428L12.575477154424902 19.549763339838428C11.471647105436903 19.549763339838428 10.575477154424902 18.65359338882643 10.575477154424902 17.549763339838428L10.575477154424902 12.66350741566771C10.575477154424902 11.55967736667971 11.471647105436903 10.66350741566771 12.575477154424902 10.66350741566771Z"/>
    <mask id="mask-12" maskUnits="userSpaceOnUse" maskContentUnits="userSpaceOnUse" x="0" y="0">
      <rect opacity="1" x="0" y="0" width="30" height="29.999999999999773" fill="black"/>
      <use xlink:href="#path-11" fill="white"/>
    </mask>
    <path id="path-13" opacity="1" fill-rule="evenodd" d="M12.575477154424902 21.113744075829118L17.251012145749648 21.113744075829118C18.35484219473765 21.113744075829118 19.251012145749648 22.009914026841116 19.251012145749648 23.113744075829118L19.251012145749648 27.999999999999844C19.251012145749648 29.10383004898784 18.35484219473765 29.999999999999844 17.251012145749648 29.999999999999844L12.575477154424902 29.999999999999844C11.471647105436903 29.999999999999844 10.575477154424902 29.10383004898784 10.575477154424902 27.999999999999844L10.575477154424902 23.113744075829118C10.575477154424902 22.009914026841116 11.471647105436903 21.113744075829118 12.575477154424902 21.113744075829118Z"/>
    <mask id="mask-14" maskUnits="userSpaceOnUse" maskContentUnits="userSpaceOnUse" x="0" y="0">
      <rect opacity="1" x="0" y="0" width="30" height="29.999999999999773" fill="black"/>
      <use xlink:href="#path-13" fill="white"/>
    </mask>
    <path id="path-15" opacity="1" fill-rule="evenodd" d="M23.32446500867536 10.663507109004968L28.000000000000107 10.663507109004968C29.103830048988105 10.663507109004968 30.000000000000107 11.559677060016968 30.000000000000107 12.663507109004968L30.000000000000107 17.54976303317569C30.000000000000107 18.653593082163688 29.103830048988105 19.54976303317569 28.000000000000107 19.54976303317569L23.32446500867536 19.54976303317569C22.22063495968736 19.54976303317569 21.32446500867536 18.653593082163688 21.32446500867536 17.54976303317569L21.32446500867536 12.663507109004968C21.32446500867536 11.559677060016968 22.22063495968736 10.663507109004968 23.32446500867536 10.663507109004968Z"/>
    <mask id="mask-16" maskUnits="userSpaceOnUse" maskContentUnits="userSpaceOnUse" x="0" y="0">
      <rect opacity="1" x="0" y="0" width="30" height="29.999999999999773" fill="black"/>
      <use xlink:href="#path-15" fill="white"/>
    </mask>
    <path id="path-17" opacity="1" fill-rule="evenodd" d="M23.32446500867536 21.113743769166604L28.000000000000107 21.113743769166604C29.103830048988105 21.113743769166604 30.000000000000107 22.009913720178602 30.000000000000107 23.113743769166604L30.000000000000107 27.999999693337315C30.000000000000107 29.103829742325317 29.103830048988105 29.999999693337315 28.000000000000107 29.999999693337315L23.32446500867536 29.999999693337315C22.22063495968736 29.999999693337315 21.32446500867536 29.103829742325317 21.32446500867536 27.999999693337315L21.32446500867536 23.113743769166604C21.32446500867536 22.009913720178602 22.22063495968736 21.113743769166604 23.32446500867536 21.113743769166604Z"/>
    <mask id="mask-18" maskUnits="userSpaceOnUse" maskContentUnits="userSpaceOnUse" x="0" y="0">
      <rect opacity="1" x="0" y="0" width="30" height="29.999999999999773" fill="black"/>
      <use xlink:href="#path-17" fill="white"/>
    </mask>
  </defs>
  <g opacity="1">
    <g opacity="1">
      <use xlink:href="#path-1" fill="rgb(255,255,255)" fill-opacity="1"/>
      <use xlink:href="#path-1" fill-opacity="0" stroke="rgb(166,125,50)" stroke-opacity="1" stroke-width="2" stroke-linecap="butt" stroke-linejoin="miter" mask="url(#mask-2)"/>
    </g>
    <g opacity="1">
      <use xlink:href="#path-3" fill="rgb(255,255,255)" fill-opacity="1"/>
      <use xlink:href="#path-3" fill-opacity="0" stroke="rgb(166,125,50)" stroke-opacity="1" stroke-width="2" stroke-linecap="butt" stroke-linejoin="miter" mask="url(#mask-4)"/>
    </g>
    <g opacity="1">
      <use xlink:href="#path-5" fill="rgb(255,255,255)" fill-opacity="1"/>
      <use xlink:href="#path-5" fill-opacity="0" stroke="rgb(166,125,50)" stroke-opacity="1" stroke-width="2" stroke-linecap="butt" stroke-linejoin="miter" mask="url(#mask-6)"/>
    </g>
    <g opacity="1">
      <use xlink:href="#path-7" fill="rgb(255,255,255)" fill-opacity="1"/>
      <use xlink:href="#path-7" fill-opacity="0" stroke="rgb(166,125,50)" stroke-opacity="1" stroke-width="2" stroke-linecap="butt" stroke-linejoin="miter" mask="url(#mask-8)"/>
    </g>
    <g opacity="1">
      <use xlink:href="#path-9" fill="rgb(255,255,255)" fill-opacity="1"/>
      <use xlink:href="#path-9" fill-opacity="0" stroke="rgb(166,125,50)" stroke-opacity="1" stroke-width="2" stroke-linecap="butt" stroke-linejoin="miter" mask="url(#mask-10)"/>
    </g>
    <g opacity="1">
      <use xlink:href="#path-11" fill="rgb(255,255,255)" fill-opacity="1"/>
      <use xlink:href="#path-11" fill-opacity="0" stroke="rgb(166,125,50)" stroke-opacity="1" stroke-width="2" stroke-linecap="butt" stroke-linejoin="miter" mask="url(#mask-12)"/>
    </g>
    <g opacity="1">
      <use xlink:href="#path-13" fill="rgb(255,255,255)" fill-opacity="1"/>
      <use xlink:href="#path-13" fill-opacity="0" stroke="rgb(166,125,50)" stroke-opacity="1" stroke-width="2" stroke-linecap="butt" stroke-linejoin="miter" mask="url(#mask-14)"/>
    </g>
    <g opacity="1">
      <use xlink:href="#path-15" fill="rgb(255,255,255)" fill-opacity="1"/>
      <use xlink:href="#path-15" fill-opacity="0" stroke="rgb(166,125,50)" stroke-opacity="1" stroke-width="2" stroke-linecap="butt" stroke-linejoin="miter" mask="url(#mask-16)"/>
    </g>
    <g opacity="1">
      <use xlink:href="#path-17" fill="rgb(255,255,255)" fill-opacity="1"/>
      <use xlink:href="#path-17" fill-opacity="0" stroke="rgb(166,125,50)" stroke-opacity="1" stroke-width="2" stroke-linecap="butt" stroke-linejoin="miter" mask="url(#mask-18)"/>
    </g>
  </g>
</svg>